<svg xmlns="http://www.w3.org/2000/svg" id="图层_1" data-name="图层 1" viewBox="0 0 823.73 220.19" data-inject-url="https://www.navinfo.com/uploads/images/20230310/a77fb9180dbe31306b19aedd9e21cc04.svg"><defs><style>.clsa-1{fill:#fff;}.clsa-2{fill:#5084c4;}.clsa-3{fill:#004ea1;}.clsa-4{fill:#231815;}</style></defs><path class="clsa-1" d="M2,100.43H21.37V44.7L74.12,91.83s5.24,9,26.57,9V18.13H81.6V73.87L23.24,21.49S17,17.58,11.8,17.58H2Z" transform="translate(-1.15)"></path><path class="clsa-1" d="M112.1,100.81h19.46V47.11S131.37,36.84,142,34.59h43.21a12.28,12.28,0,0,1,10.09,12.35V59.46H143.72v17h51.45v24.32h19.64V42.63s1.49-20.58-23.39-25.25H134s-22.07,3.17-22.07,26.55.18,56.88.18,56.88" transform="translate(-1.15)"></path><path class="clsa-1" d="M225.47,100.63h6.37a24,24,0,0,0,15.89-5.06,72.92,72.92,0,0,0,9.73-8.79c3.92-4.49,66-68.83,66-68.83h-24L244.75,73.68V17.38H225.47Z" transform="translate(-1.15)"></path><rect class="clsa-1" x="332.76" y="17.66" width="19.6" height="83.06"></rect><path class="clsa-1" d="M364.26,100.42h19.36V44.68l52.75,47.15s5.22,9,26.56,9V18.12H443.85V73.86L385.49,21.48s-6.28-3.91-11.44-3.91h-9.79Z" transform="translate(-1.15)"></path><path class="clsa-1" d="M559.58,34.34V17.73H497.29s-19.72-.44-23.58,22.7v60.49h19.58V75.86h66.13V59.55H493.14V47.25S494,34.34,505.9,34.34Z" transform="translate(-1.15)"></path><path class="clsa-1" d="M652.73,17.57h-58C570.24,19.43,570.24,43,570.24,43V77.42c2.8,21.9,22.45,23.22,22.45,23.22h61c23-2.44,23.94-24,23.94-24V44.12c-1.31-26.74-24.89-26.55-24.89-26.55M658,72.93s-.76,10.66-13.66,11.24H600.54s-9.34-1-11.2-11.62V46.74s.93-10.1,10.09-12.15h48.83A12.61,12.61,0,0,1,658,46.37Z" transform="translate(-1.15)"></path><path class="clsa-2" d="M2,100.43H21.37V44.7L74.12,91.83s5.24,9,26.57,9V18.13H81.6V73.87L23.24,21.49S17,17.58,11.8,17.58H2Z" transform="translate(-1.15)"></path><path class="clsa-2" d="M112.1,100.81h19.46V47.11S131.37,36.84,142,34.59h43.21a12.28,12.28,0,0,1,10.09,12.35V59.46H143.72v17h51.45v24.32h19.64V42.63s1.49-20.58-23.39-25.25H134s-22.07,3.17-22.07,26.55.18,56.88.18,56.88" transform="translate(-1.15)"></path><path class="clsa-2" d="M225.47,100.63h6.37a24,24,0,0,0,15.89-5.06,72.92,72.92,0,0,0,9.73-8.79c3.92-4.49,66-68.83,66-68.83h-24L244.75,73.68V17.38H225.47Z" transform="translate(-1.15)"></path><rect class="clsa-3" x="332.76" y="17.66" width="19.6" height="83.06"></rect><path class="clsa-3" d="M364.26,100.42h19.36V44.68l52.75,47.15s5.22,9,26.56,9V18.12H443.85V73.86L385.49,21.48s-6.28-3.91-11.44-3.91h-9.79Z" transform="translate(-1.15)"></path><path class="clsa-3" d="M559.58,34.34V17.73H497.29s-19.72-.44-23.58,22.7v60.49h19.58V75.86h66.13V59.55H493.14V47.25S494,34.34,505.9,34.34Z" transform="translate(-1.15)"></path><path class="clsa-3" d="M652.73,17.57h-58C570.24,19.43,570.24,43,570.24,43V77.42c2.8,21.9,22.45,23.22,22.45,23.22h61c23-2.44,23.94-24,23.94-24V44.12c-1.31-26.74-24.89-26.55-24.89-26.55M658,72.93s-.76,10.66-13.66,11.24H600.54s-9.34-1-11.2-11.62V46.74s.93-10.1,10.09-12.15h48.83A12.61,12.61,0,0,1,658,46.37Z" transform="translate(-1.15)"></path><path class="clsa-3" d="M814.78,67,716.3,0V33.2c.37,5.32,2.43,15,12,21.36L795.46,99l10.18,8.51,8,6.69c6,5,9.09,9.63,10.38,15.11h0c.42-1.46.71-10.28.71-10.28V98.25c.27-14.27,1-22.13-10-31.27" transform="translate(-1.15)"></path><path class="clsa-2" d="M822.46,134.82c-.34-7.65-3.2-12.93-10.26-18.83l-5.47-4.54-3.27,2.7-10.17,8.49-66.6,44.12A27.58,27.58,0,0,0,716.3,186.9v33.29l96.28-65.49c7.36-6.12,9.46-11.65,10-18.93Z" transform="translate(-1.15)"></path><path class="clsa-4" d="M45.79,178.53a19.88,19.88,0,0,0,.56,4.08,7.32,7.32,0,0,0,2.33,4,10,10,0,0,0,4.52,2.17,23.84,23.84,0,0,0,5.34.63H70v4.25c0,1.73.53,4.35-1.5,5.74a3.47,3.47,0,0,1-2.23.85H12.21v-11H24a15,15,0,0,0,5.81-1.1,8.57,8.57,0,0,0,4-3.09,11.2,11.2,0,0,0,1.73-4.85,39.65,39.65,0,0,0,.38-5V142.12h9.9Zm35.48,20.64V141.89s-2.13-10.47-12.51-10.47H1.15V211.2H67.91C82.5,211.2,81.27,199.17,81.27,199.17Zm-57-24.62c0,1.71-.36,2.82-1.08,3.34s-3.22.78-6.2.78H12.21V142.12H24.28Zm37.54,4.14A7.86,7.86,0,0,1,57.9,178q-1-.65-1-3.06V142.12H65s5-.23,5,4.16v32.41Z" transform="translate(-1.15)"></path><path class="clsa-4" d="M219.9,153.13l-4,7.53h-7.8l14.08-29.15h-11.1s-11.88,24.91-12.62,26.79a12.74,12.74,0,0,0-.83,3.36v9.16h12s-5.22,7.74-7.6,12.2a21.05,21.05,0,0,0-2.07,6.71v5.08h28.23V184.29H214l17.26-31.16Z" transform="translate(-1.15)"></path><rect class="clsa-4" x="198.14" y="201.68" width="29.97" height="9.9"></rect><path class="clsa-4" d="M282.77,167.16v-9.9H269.33V144.13h13.3V134.8H269.2l.33-4H258.06v4H248.3l1.84-4H238.43s-1.05,3.09-8.48,9.79l-.08,11.55,5-3.24v62.92h47.76v-9.3h-13.3V189.28H282.6v-9.61H269.33V167.16Zm-25.1,35H246.15v-13h11.52Zm0-22.46H246.15v-13h11.52Zm.1-22.43H246.25V144.13h11.52Z" transform="translate(-1.15)"></path><path class="clsa-4" d="M468.48,196.78c-.28,4.08-3.86,4-5.64,4H410.1V141.64H463s5.48.47,5.48,4.55Zm10.87,4.35V142.39s-.33-9-11.3-11h-69V211.2h70.43C478.92,209.45,479.35,201.13,479.35,201.13Z" transform="translate(-1.15)"></path><path class="clsa-4" d="M417,178h10.11s3,2.81,5.48,2.81H463v6.89H434S422.79,188.21,417,178Z" transform="translate(-1.15)"></path><path class="clsa-4" d="M417,188.21h10.11s3,2.82,5.48,2.82H463v6.88H434S422.79,198.48,417,188.21Z" transform="translate(-1.15)"></path><path class="clsa-4" d="M423.5,142.53h9.27l-1.4,4.08h33.17v6.89l-16.72,12.79,4.2,1.83a18,18,0,0,0,6.05.84h6.47v7H451.89a22.59,22.59,0,0,1-7.22-1.93L440.56,172l-3.28,1.94a8.52,8.52,0,0,1-6,2H413.66V169h12.49s4.72-.49,5.68-1.82l-10.9-7.69h13.69l5,2.42,10.9-8.12H427a37.91,37.91,0,0,1-13.33,7.34v-9.39S419,150.39,423.5,142.53Z" transform="translate(-1.15)"></path><path class="clsa-4" d="M640.12,154.69h-5.94c1.3-3,1.23-11.58,1.23-11.58h4.77V134h-15.7v-3.54H613.55l-.07,3.46H597.4v9.27h5.65a52.75,52.75,0,0,0,1.09,11.51h-6.81v9.12h42.79Zm-15.35,0H613.19s-1.52-4-.88-11.58h13.91S626.36,153.53,624.77,154.69Z" transform="translate(-1.15)"></path><polygon class="clsa-4" points="639.11 170.04 623.25 170.04 623.25 165.04 612.75 165.04 612.75 169.97 596.03 169.97 596.03 179.38 612.61 179.38 612.61 211.88 623.32 211.88 623.32 179.24 639.11 179.24 639.11 170.04"></polygon><path class="clsa-4" d="M600.74,194.66a13.08,13.08,0,0,1-3.56,7.81l.15,9.71a16.54,16.54,0,0,0,11.95-11.51l1.81-16.8-8.9-.14S601.38,189.44,600.74,194.66Z" transform="translate(-1.15)"></path><path class="clsa-4" d="M653.65,152.52v-9h14.63c10.77-1.37,10.41-7.46,10.41-7.46v-5.57h-9.84V132a2,2,0,0,1-1.87,1.74H643.23L643.16,200c0,1.09-.29,2.39-2.54,2.46a2.39,2.39,0,0,1-2.53-2l-2.17-16.58h-9.85l2.46,19.55a12.48,12.48,0,0,0,8.18,8.69h8c8.9-.8,8.83-12.9,8.83-12.9V162.44h10.57v49.08h10V162.44h5.07v-9.92Z" transform="translate(-1.15)"></path></svg>